<svg width="22" height="18" viewBox="0 0 22 18" fill="none" xmlns="http://www.w3.org/2000/svg">
<g clip-path="url(#clip0_370_3)">
<path d="M20.9859 13.1238C21.0753 12.6281 21.0753 12.1219 20.9859 11.6262L21.8728 11.1023C21.9759 11.0426 22.0206 10.9195 21.9862 10.8035C21.7559 10.0441 21.3606 9.35508 20.845 8.78555C20.7659 8.69766 20.6387 8.67656 20.5356 8.73633L19.6487 9.26016C19.2741 8.9332 18.8444 8.68008 18.3803 8.51133V7.46367C18.3803 7.34414 18.2978 7.23867 18.1844 7.21406C17.4178 7.03828 16.6375 7.04531 15.9087 7.21406C15.7953 7.23867 15.7128 7.34414 15.7128 7.46367V8.51133C15.2487 8.68008 14.8191 8.9332 14.4444 9.26016L13.5575 8.73633C13.4578 8.67656 13.3272 8.69766 13.2481 8.78555C12.7325 9.35508 12.3372 10.0441 12.1069 10.8035C12.0725 10.9195 12.1206 11.0426 12.2203 11.1023L13.1072 11.6262C13.0178 12.1219 13.0178 12.6281 13.1072 13.1238L12.2203 13.6477C12.1172 13.7074 12.0725 13.8305 12.1069 13.9465C12.3372 14.7059 12.7325 15.3914 13.2481 15.9645C13.3272 16.0523 13.4544 16.0734 13.5575 16.0137L14.4444 15.4898C14.8191 15.8168 15.2487 16.0699 15.7128 16.2387V17.2863C15.7128 17.4059 15.7953 17.5113 15.9087 17.5359C16.6753 17.7117 17.4556 17.7047 18.1844 17.5359C18.2978 17.5113 18.3803 17.4059 18.3803 17.2863V16.2387C18.8444 16.0699 19.2741 15.8168 19.6487 15.4898L20.5356 16.0137C20.6353 16.0734 20.7659 16.0523 20.845 15.9645C21.3606 15.3949 21.7559 14.7059 21.9862 13.9465C22.0206 13.8305 21.9725 13.7074 21.8728 13.6477L20.9859 13.1238ZM17.05 14.0801C16.1287 14.0801 15.3828 13.3137 15.3828 12.375C15.3828 11.4363 16.1322 10.6699 17.05 10.6699C17.9678 10.6699 18.7172 11.4363 18.7172 12.375C18.7172 13.3137 17.9712 14.0801 17.05 14.0801ZM7.7 9C10.1303 9 12.1 6.98555 12.1 4.5C12.1 2.01445 10.1303 0 7.7 0C5.26969 0 3.3 2.01445 3.3 4.5C3.3 6.98555 5.26969 9 7.7 9ZM14.6162 16.9629C14.5372 16.9207 14.4581 16.8715 14.3825 16.8258L14.1109 16.9875C13.9047 17.107 13.6709 17.1738 13.4372 17.1738C13.0625 17.1738 12.7016 17.0121 12.4437 16.7309C11.8147 16.0348 11.3334 15.1875 11.0619 14.284C10.8728 13.6617 11.1272 13.0043 11.6772 12.6773L11.9487 12.5156C11.9453 12.4242 11.9453 12.3328 11.9487 12.2414L11.6772 12.0797C11.1272 11.7563 10.8728 11.0953 11.0619 10.473C11.0928 10.3711 11.1375 10.2691 11.1719 10.1672C11.0412 10.1566 10.9141 10.125 10.78 10.125H10.2059C9.44281 10.4836 8.59375 10.6875 7.7 10.6875C6.80625 10.6875 5.96062 10.4836 5.19406 10.125H4.62C2.06937 10.125 0 12.2414 0 14.85V16.3125C0 17.2441 0.739062 18 1.65 18H13.75C14.0972 18 14.4203 17.8875 14.685 17.7012C14.6437 17.5676 14.6162 17.4305 14.6162 17.2863V16.9629Z" fill="black"/>
</g>
<defs>
<clipPath id="clip0_370_3">
<rect width="22" height="18" fill="white"/>
</clipPath>
</defs>
</svg>
