<svg width="19" height="19" viewBox="0 0 19 19" fill="none" xmlns="http://www.w3.org/2000/svg">
<g opacity="0.9" clip-path="url(#clip0_285_420)">
<path fill-rule="evenodd" clip-rule="evenodd" d="M9.49995 2.84995C8.62666 2.84995 7.76192 3.02196 6.95511 3.35615C6.14829 3.69035 5.4152 4.18018 4.79769 4.79769C4.18018 5.4152 3.69035 6.14829 3.35615 6.95511C3.02196 7.76192 2.84995 8.62666 2.84995 9.49995C2.84995 10.3732 3.02196 11.238 3.35615 12.0448C3.69035 12.8516 4.18018 13.5847 4.79769 14.2022C5.4152 14.8197 6.14829 15.3096 6.95511 15.6438C7.76192 15.9779 8.62666 16.15 9.49995 16.15C11.2636 16.15 12.9551 15.4493 14.2022 14.2022C15.4493 12.9551 16.15 11.2636 16.15 9.49995C16.15 7.73626 15.4493 6.04481 14.2022 4.79769C12.9551 3.55057 11.2636 2.84995 9.49995 2.84995ZM0.949951 9.49995C0.949951 7.23235 1.85075 5.05762 3.45419 3.45419C5.05762 1.85075 7.23235 0.949951 9.49995 0.949951C11.7676 0.949951 13.9423 1.85075 15.5457 3.45419C17.1492 5.05762 18.05 7.23235 18.05 9.49995C18.05 11.7676 17.1492 13.9423 15.5457 15.5457C13.9423 17.1492 11.7676 18.05 9.49995 18.05C7.23235 18.05 5.05762 17.1492 3.45419 15.5457C1.85075 13.9423 0.949951 11.7676 0.949951 9.49995ZM8.54995 5.69995C8.54995 5.448 8.65004 5.20636 8.8282 5.0282C9.00636 4.85004 9.248 4.74995 9.49995 4.74995H9.50945C9.76141 4.74995 10.003 4.85004 10.1812 5.0282C10.3594 5.20636 10.4595 5.448 10.4595 5.69995C10.4595 5.95191 10.3594 6.19354 10.1812 6.3717C10.003 6.54986 9.76141 6.64995 9.50945 6.64995H9.49995C9.248 6.64995 9.00636 6.54986 8.8282 6.3717C8.65004 6.19354 8.54995 5.95191 8.54995 5.69995ZM8.55945 13.3C8.55945 13.5519 8.65954 13.7935 8.8377 13.9717C9.01586 14.1499 9.2575 14.25 9.50945 14.25C9.76141 14.25 10.003 14.1499 10.1812 13.9717C10.3594 13.7935 10.4595 13.5519 10.4595 13.3V8.54995C10.4595 8.298 10.3594 8.05636 10.1812 7.8782C10.003 7.70004 9.76141 7.59995 9.50945 7.59995C9.2575 7.59995 9.01586 7.70004 8.8377 7.8782C8.65954 8.05636 8.55945 8.298 8.55945 8.54995V13.3Z" fill="black"/>
</g>
<defs>
<clipPath id="clip0_285_420">
<rect width="19" height="19" fill="white"/>
</clipPath>
</defs>
</svg>
