<svg width="21" height="21" viewBox="0 0 21 21" fill="none" xmlns="http://www.w3.org/2000/svg">
<path d="M8.75002 18.375H12.25C12.25 18.8391 12.0656 19.2842 11.7375 19.6124C11.4093 19.9406 10.9641 20.125 10.5 20.125C10.0359 20.125 9.59077 19.9406 9.26258 19.6124C8.93439 19.2842 8.75002 18.8391 8.75002 18.375ZM18.375 16.625V17.5H2.62502V16.625L4.37502 14.875V9.625C4.37502 6.9125 6.15127 4.52375 8.75002 3.75375V3.5C8.75002 3.03587 8.93439 2.59075 9.26258 2.26256C9.59077 1.93437 10.0359 1.75 10.5 1.75C10.9641 1.75 11.4093 1.93437 11.7375 2.26256C12.0656 2.59075 12.25 3.03587 12.25 3.5V3.75375C14.8488 4.52375 16.625 6.9125 16.625 9.625V14.875L18.375 16.625ZM14.875 9.625C14.875 8.46468 14.4141 7.35188 13.5936 6.53141C12.7731 5.71094 11.6603 5.25 10.5 5.25C9.33969 5.25 8.2269 5.71094 7.40642 6.53141C6.58595 7.35188 6.12502 8.46468 6.12502 9.625V15.75H14.875V9.625ZM17.2813 2.79125L16.0388 4.03375C16.7789 4.76468 17.3665 5.6353 17.7676 6.5951C18.1686 7.5549 18.3751 8.58478 18.375 9.625H20.125C20.125 7.06125 19.11 4.59375 17.2813 2.79125ZM0.875017 9.625H2.62502C2.62502 7.525 3.46502 5.5125 4.96127 4.03375L3.71877 2.79125C2.81566 3.68512 2.0992 4.74956 1.61102 5.92271C1.12283 7.09586 0.872651 8.35433 0.875017 9.625Z" fill="black"/>
</svg>
