<svg width="21" height="21" viewBox="0 0 21 21" fill="none" xmlns="http://www.w3.org/2000/svg">
<path d="M10.5 2.625C6.15076 2.625 2.625 6.15076 2.625 10.5C2.625 14.8493 6.15076 18.375 10.5 18.375C14.8493 18.375 18.375 14.8493 18.375 10.5C18.375 8.16769 17.361 6.07218 15.75 4.63022M7 14L14 7M14.875 13.125C14.875 14.0915 14.0915 14.875 13.125 14.875C12.1585 14.875 11.375 14.0915 11.375 13.125C11.375 12.1585 12.1585 11.375 13.125 11.375C14.0915 11.375 14.875 12.1585 14.875 13.125ZM9.625 7.875C9.625 8.84152 8.84152 9.625 7.875 9.625C6.9085 9.625 6.125 8.84152 6.125 7.875C6.125 6.9085 6.9085 6.125 7.875 6.125C8.84152 6.125 9.625 6.9085 9.625 7.875Z" stroke="black" stroke-width="1.5" stroke-linecap="round" stroke-linejoin="round"/>
</svg>
