<svg width="21" height="21" viewBox="0 0 21 21" fill="none" xmlns="http://www.w3.org/2000/svg">
<path d="M1.75 10.5C1.75 7.20017 1.75 5.55026 2.77512 4.52512C3.80026 3.5 5.45017 3.5 8.75 3.5H12.25C15.5498 3.5 17.1998 3.5 18.2248 4.52512C19.25 5.55026 19.25 7.20017 19.25 10.5C19.25 13.7998 19.25 15.4498 18.2248 16.4748C17.1998 17.5 15.5498 17.5 12.25 17.5H8.75C5.45017 17.5 3.80026 17.5 2.77512 16.4748C1.75 15.4498 1.75 13.7998 1.75 10.5Z" stroke="black" stroke-width="1.5"/>
<path d="M8.75 14H5.25" stroke="black" stroke-width="1.5" stroke-linecap="round"/>
<path d="M12.25 14H10.9375" stroke="black" stroke-width="1.5" stroke-linecap="round"/>
<path d="M1.75 8.75H19.25" stroke="black" stroke-width="1.5" stroke-linecap="round"/>
</svg>
