<svg width="21" height="21" viewBox="0 0 21 21" fill="none" xmlns="http://www.w3.org/2000/svg">
<g clip-path="url(#clip0_287_445)">
<path d="M20.125 10.5C20.125 15.8157 15.8157 20.125 10.5 20.125C5.18426 20.125 0.875 15.8157 0.875 10.5C0.875 5.18426 5.18426 0.875 10.5 0.875C15.8157 0.875 20.125 5.18426 20.125 10.5ZM2.63098 10.5C2.63098 14.846 6.15406 18.3691 10.5 18.3691C14.846 18.3691 18.3691 14.846 18.3691 10.5C18.3691 6.15406 14.846 2.63098 10.5 2.63098C6.15406 2.63098 2.63098 6.15406 2.63098 10.5Z" fill="#0F0F0F"/>
<path d="M11.8125 15.75C11.8125 16.4748 11.2248 17.0625 10.5 17.0625C9.77515 17.0625 9.1875 16.4748 9.1875 15.75C9.1875 15.0252 9.77515 14.4375 10.5 14.4375C11.2248 14.4375 11.8125 15.0252 11.8125 15.75Z" fill="#0F0F0F"/>
<path d="M9.625 10.5V12.25C9.625 12.25 9.625 13.125 10.5 13.125C11.375 13.125 11.375 12.25 11.375 12.25V10.5C11.375 10.5 11.7943 10.38 11.955 10.3148C11.955 10.3148 12.2473 10.2105 12.4519 10.0534C12.6565 9.89643 12.8416 9.70987 13.0072 9.49401C13.1826 9.27806 13.319 9.02781 13.4164 8.74318C13.5138 8.45856 13.5625 8.22832 13.5625 7.875C13.5625 7.28613 13.431 6.68216 13.168 6.2405C12.9147 5.78903 12.5542 5.44063 12.0866 5.19527C11.619 4.94009 11.0734 4.8125 10.4499 4.8125C10.0602 4.8125 9.71434 4.86157 9.41238 4.95972C9.11033 5.04805 8.84249 5.17073 8.60864 5.32776C8.38457 5.47498 8.1946 5.64183 8.03872 5.8283C7.8926 6.00496 7.77569 6.17671 7.68801 6.34356C7.60033 6.5104 7.54188 6.65761 7.51266 6.7852C7.4542 6.97168 7.42985 7.1238 7.43959 7.24158C7.45907 7.35935 7.51752 7.45749 7.61495 7.53601C7.71237 7.61452 7.86337 7.69794 8.06795 7.78627C8.28228 7.85498 8.44789 7.87951 8.5648 7.85989C8.69145 7.84025 8.79375 7.78137 8.87172 7.68323C8.87172 7.68323 9.28708 7.09248 9.40398 6.9747C9.53068 6.84712 9.68652 6.74898 9.87167 6.68028C10.0567 6.60176 10.2662 6.5625 10.5 6.5625C11.0066 6.5625 11.3817 6.68518 11.6253 6.93054C11.8785 7.16609 11.955 7.36425 11.955 7.81572C11.955 8.11997 11.9015 8.36533 11.7943 8.5518C11.6871 8.73828 11.5459 8.89044 11.3705 9.00821C11.3705 9.00821 11.1324 9.09921 10.9375 9.1875C10.7524 9.26599 10.4126 9.39584 10.2372 9.49401C10.0716 9.5823 9.97877 9.67514 9.87167 9.8126C9.76448 9.94998 9.625 10.2645 9.625 10.5Z" fill="#0F0F0F"/>
</g>
<defs>
<clipPath id="clip0_287_445">
<rect width="21" height="21" fill="white"/>
</clipPath>
</defs>
</svg>
