<svg width="21" height="21" viewBox="0 0 21 21" fill="none" xmlns="http://www.w3.org/2000/svg">
<path d="M18.8515 17.4118H9.84393C9.76245 17.4118 9.68317 17.4378 9.61799 17.4859L6.28912 19.9231C6.23294 19.9656 6.16569 19.9917 6.0951 19.9983C6.02451 20.0049 5.95346 19.9918 5.89011 19.9605C5.82677 19.9291 5.77371 19.8808 5.73704 19.8211C5.70037 19.7614 5.68159 19.6928 5.68284 19.623L5.70167 17.7711C5.70167 17.6729 5.662 17.5787 5.59138 17.5092C5.52076 17.4397 5.42498 17.4007 5.3251 17.4007H3.12971C2.83009 17.4007 2.54274 17.2836 2.33088 17.0753C2.11902 16.8669 2 16.5842 2 16.2895V4.48156C2 4.08862 2.1587 3.71178 2.44118 3.43394C2.72366 3.15609 3.10679 3 3.50628 3H18.8703C19.1699 3 19.4573 3.11707 19.6691 3.32545C19.881 3.53384 20 3.81647 20 4.11117V16.2784C20 16.5784 19.8791 16.8661 19.6638 17.0786C19.4485 17.291 19.1564 17.4108 18.8515 17.4118Z" stroke="black" stroke-width="1.5"/>
<path d="M6 8V15H8.20966C8.41965 14.9989 8.62067 14.914 8.76877 14.7638C8.91687 14.6136 9 14.4104 9 14.1986V8.80143C9 8.58888 8.9163 8.38503 8.7673 8.23473C8.61831 8.08444 8.41623 8 8.20552 8H6Z" stroke="black" stroke-width="1.5"/>
<path d="M12.629 8.80266C12.8624 7.96506 12.9874 7.09251 13 6.21305C13 4.85582 11.6982 5.00483 11.6982 5.00483C11.6982 5.00483 11.1732 8.11397 9 9" stroke="black" stroke-width="1.5"/>
<path d="M12 9H15.2125C15.2125 9 16 9 16 9.51618C16 10.0324 15.2322 9.99958 15.2322 9.99958H14.9861" stroke="black" stroke-width="1.5" stroke-linecap="round"/>
<path d="M15.1225 12H15C15 12 16 12 16 11C16 10 15 10 15 10" stroke="black" stroke-width="1.5" stroke-linecap="round"/>
<path d="M15 13H15.2143C15.2143 13 16 13 16 12.5C16 12 15.2143 12 15.2143 12" stroke="black" stroke-width="1.5" stroke-linecap="round"/>
<path d="M9 13.8992L10.6477 14.787C10.6477 14.787 11.0554 15.0488 12.5842 14.9919L14.2082 14.9407C14.8435 14.9407 15.3837 13.8025 14.6397 13" stroke="black" stroke-width="1.5" stroke-linecap="round"/>
</svg>
