<svg width="17" height="17" viewBox="0 0 17 17" fill="none" xmlns="http://www.w3.org/2000/svg">
<g clip-path="url(#clip0_285_402)">
<path d="M14.9722 15.7611H1.15967V5.13607H5.43623L6.51095 4.1012L6.48332 4.07357H1.15967C0.572637 4.07357 0.097168 4.54957 0.097168 5.13607V15.7611C0.097168 16.3481 0.572637 16.8236 1.15967 16.8236H14.9722C15.5592 16.8236 16.0347 16.3481 16.0347 15.7611V7.44913L14.9722 8.46329V15.7611ZM4.48476 11.5111H5.55523C6.30004 7.28604 9.98001 4.07357 14.4186 4.07357C14.6051 4.07357 14.7814 4.07517 14.9599 4.07623L13.0134 6.02273C12.8063 6.22992 12.8063 6.56673 13.0134 6.77392C13.117 6.87804 13.2536 6.92957 13.3896 6.92957C13.5256 6.92957 13.661 6.87751 13.7646 6.77392L16.9027 3.55295L13.7646 0.331448C13.5574 0.123729 13.2212 0.123729 13.0134 0.331448C12.8063 0.539167 12.8063 0.875448 13.0134 1.08264L14.9424 3.01107C14.7756 3.01107 14.6109 3.01001 14.4409 3.01001C9.40998 3.01001 5.25082 6.69529 4.48476 11.5111Z" fill="black"/>
</g>
<defs>
<clipPath id="clip0_285_402">
<rect width="17" height="17" fill="white"/>
</clipPath>
</defs>
</svg>
