<svg width="19" height="18" viewBox="0 0 19 18" fill="none" xmlns="http://www.w3.org/2000/svg">
<path d="M15.25 5.33329V4.59996C15.25 3.5732 15.25 3.05981 15.0411 2.66764C14.8574 2.32268 14.5641 2.04221 14.2035 1.86645C13.7935 1.66663 13.2568 1.66663 12.1833 1.66663H3.94167C2.86823 1.66663 2.33151 1.66663 1.92152 1.86645C1.56087 2.04221 1.26766 2.32268 1.08391 2.66764C0.875 3.05981 0.875 3.5732 0.875 4.59996V5.33329M0.875 5.33329V13.4C0.875 14.4267 0.875 14.9401 1.08391 15.3323C1.26766 15.6772 1.56087 15.9577 1.92152 16.1335C2.33151 16.3333 2.86823 16.3333 3.94167 16.3333H15.0583C16.1318 16.3333 16.6685 16.3333 17.0785 16.1335C17.4391 15.9577 17.7324 15.6772 17.9161 15.3323C18.125 14.9401 18.125 14.4267 18.125 13.4V8.26663C18.125 7.23987 18.125 6.72648 17.9161 6.33431C17.7324 5.98934 17.4391 5.70888 17.0785 5.53312C16.6685 5.33329 16.1318 5.33329 15.0583 5.33329H0.875ZM18.125 8.99996H16.2083C15.1498 8.99996 14.2917 9.82074 14.2917 10.8333C14.2917 11.8458 15.1498 12.6666 16.2083 12.6666H18.125" stroke="black" stroke-width="1.5" stroke-linecap="round" stroke-linejoin="round"/>
</svg>
